<?xml version="1.0" encoding="UTF-8" standalone="no"?>
<!DOCTYPE svg PUBLIC "-//W3C//DTD SVG 1.1//EN" "http://www.w3.org/Graphics/SVG/1.1/DTD/svg11.dtd">
<svg width="100%" height="100%" viewBox="0 0 24 24" version="1.1" xmlns="http://www.w3.org/2000/svg" xmlns:xlink="http://www.w3.org/1999/xlink" xml:space="preserve" xmlns:serif="http://www.serif.com/" style="fill-rule:evenodd;clip-rule:evenodd;stroke-linejoin:round;stroke-miterlimit:2;">
    <g transform="matrix(1,0,0,1,-90,-96)">
        <g id="AI-Mate" serif:id="AI Mate" transform="matrix(0.24,0,0,0.24,89.52,96.24)">
            <rect x="2" y="-1" width="100" height="100" style="fill:none;"/>
            <clipPath id="_clip1">
                <rect x="2" y="-1" width="100" height="100"/>
            </clipPath>
            <g clip-path="url(#_clip1)">
                <g transform="matrix(50,0,0,50,2,-1)">
                    <rect x="0" y="0" width="2" height="2" style="fill:rgb(249,199,79);"/>
                </g>
                <g>
                    <g transform="matrix(0.715761,0,0,0.715761,16.212972,13.211979)">
                        <path d="M74.086,43.555L28.101,89.54C26.859,90.782 25.203,91.47 23.437,91.47C21.671,91.47 20.015,90.782 18.773,89.54L11.179,81.946C9.937,80.704 9.249,79.048 9.249,77.282C9.249,75.516 9.937,73.86 11.179,72.618L71.898,11.899C74.468,9.329 78.656,9.329 81.226,11.899L88.82,19.493C91.39,22.063 91.39,26.25 88.82,28.821L74.086,43.555ZM76.32,16.321L63.797,28.844L71.875,36.922L84.406,24.399C84.539,24.266 84.539,24.047 84.406,23.914L76.813,16.321C76.672,16.188 76.453,16.188 76.32,16.321ZM23.679,85.118L67.453,41.344L59.374,33.266L15.593,77.032C15.461,77.172 15.461,77.391 15.593,77.524L23.187,85.118C23.328,85.251 23.547,85.251 23.679,85.118Z"/>
                    </g>
                    <g transform="matrix(0.715761,0,0,0.715761,16.212972,13.211979)">
                        <path d="M89.711,46.68L89.578,46.813L89.71,46.945C90.929,48.164 90.929,50.141 89.71,51.367C89.101,51.977 88.304,52.281 87.5,52.281C86.695,52.281 85.898,51.977 85.289,51.367L85.156,51.234L85.023,51.367C84.414,51.977 83.617,52.281 82.812,52.281C82.007,52.281 81.21,51.977 80.601,51.367C79.382,50.148 79.382,48.172 80.601,46.945L80.734,46.813L80.601,46.68C79.382,45.461 79.382,43.484 80.601,42.258C81.82,41.039 83.804,41.039 85.023,42.258L85.156,42.391L85.289,42.258C86.507,41.039 88.492,41.039 89.711,42.258C90.929,43.477 90.929,45.461 89.711,46.68Z" style="fill-opacity:0.4;"/>
                    </g>
                    <g transform="matrix(0.715761,0,0,0.715761,-37.11093,18.416935)">
                        <path d="M89.711,46.68L89.578,46.813L89.71,46.945C90.929,48.164 90.929,50.141 89.71,51.367C89.101,51.977 88.304,52.281 87.5,52.281C86.695,52.281 85.898,51.977 85.289,51.367L85.156,51.234L85.023,51.367C84.414,51.977 83.617,52.281 82.812,52.281C82.007,52.281 81.21,51.977 80.601,51.367C79.382,50.148 79.382,48.172 80.601,46.945L80.734,46.813L80.601,46.68C79.382,45.461 79.382,43.484 80.601,42.258C81.82,41.039 83.804,41.039 85.023,42.258L85.156,42.391L85.289,42.258C86.507,41.039 88.492,41.039 89.711,42.258C90.929,43.477 90.929,45.461 89.711,46.68Z" style="fill-opacity:0.4;"/>
                    </g>
                    <g transform="matrix(0.715761,0,0,0.715761,16.212972,13.211979)">
                        <path d="M13.453,29.562C11.992,29.273 10.937,27.992 10.937,26.5C10.937,25.007 11.992,23.726 13.453,23.437C19.727,22.179 24.586,17.319 25.844,11.046C26.133,9.585 27.422,8.53 28.906,8.53C30.391,8.53 31.68,9.585 31.969,11.046C33.219,17.32 38.087,22.179 44.36,23.437C45.821,23.726 46.876,25.015 46.876,26.5C46.876,27.984 45.821,29.273 44.36,29.562C38.086,30.812 33.227,35.68 31.969,41.953C31.68,43.414 30.391,44.469 28.906,44.469C27.422,44.469 26.133,43.414 25.844,41.953C24.594,35.679 19.726,30.82 13.453,29.562ZM28.906,19.867C27.203,22.531 24.937,24.796 22.273,26.5C24.937,28.21 27.203,30.468 28.906,33.132C30.617,30.468 32.875,28.203 35.539,26.5C32.875,24.789 30.609,22.531 28.906,19.867ZM86.555,70.312C88.016,70.601 89.063,71.882 89.063,73.375C89.063,74.867 88.008,76.148 86.547,76.437C81.86,77.375 78.219,81.015 77.282,85.703C76.992,87.163 75.711,88.218 74.219,88.218C72.727,88.218 71.446,87.163 71.157,85.703C70.219,81.015 66.578,77.375 61.891,76.437C60.43,76.148 59.375,74.867 59.375,73.375C59.375,71.882 60.43,70.601 61.899,70.312C66.586,69.375 70.227,65.734 71.164,61.046C71.453,59.586 72.735,58.531 74.227,58.531C75.719,58.531 77,59.586 77.289,61.046C78.227,65.734 81.868,69.375 86.555,70.312ZM74.219,77.437C75.352,75.875 76.719,74.5 78.282,73.375C76.719,72.25 75.344,70.875 74.219,69.312C73.094,70.875 71.719,72.25 70.156,73.375C71.719,74.5 73.094,75.875 74.219,77.437Z"/>
                    </g>
                    <g transform="matrix(10.416667,0,0,10.416667,-1060.5,-1026)">
                        <path d="M104.8,104.4L104,105L105,106L105.2,105.6L107.6,103.2L108.4,102.6L107.8,102L107.6,101.6L104.8,104.4Z" style="fill-opacity:0.4;"/>
                    </g>
                </g>
                <g transform="matrix(4.166667,0,0,4.166667,-373,-401)">
                    <path d="M105,112L106,111L108,112L106,113L105,112" style="fill-opacity:0.4;"/>
                </g>
                <g transform="matrix(4.166667,0,0,4.166667,-373,-401)">
                    <path d="M97,104L98,102L99,102L100,104L99,106L98,106L97,104Z" style="fill-opacity:0.4;"/>
                </g>
            </g>
        </g>
        <g id="Colors">
        </g>
    </g>
</svg>
